<svg width="28" height="28" viewBox="0 0 28 28" fill="none" xmlns="http://www.w3.org/2000/svg">
<path d="M23.1333 1H8.2C7.35131 1 6.53737 1.33714 5.93726 1.93726C5.33714 2.53737 5 3.35131 5 4.2V19.1333C5 19.982 5.33714 20.796 5.93726 21.3961C6.53737 21.9962 7.35131 22.3333 8.2 22.3333H23.1333C23.982 22.3333 24.796 21.9962 25.3961 21.3961C25.9962 20.796 26.3333 19.982 26.3333 19.1333V4.2C26.3333 3.35131 25.9962 2.53737 25.3961 1.93726C24.796 1.33714 23.982 1 23.1333 1Z" stroke="black" stroke-width="1.5" stroke-miterlimit="10"/>
<path d="M23.6667 26.3334H8.2C4.22667 26.3334 1 23.1067 1 19.1334V3.66675M19.4373 15.4387L11.896 7.89608M19.4373 7.89608L11.896 15.4374" stroke="black" stroke-width="1.5" stroke-miterlimit="10" stroke-linecap="round"/>
</svg>
