<svg width="21" height="21" viewBox="0 0 21 21" fill="none" xmlns="http://www.w3.org/2000/svg">
<path d="M4.031 13.6666C4.16893 13.6272 4.31701 13.6464 4.4403 13.7198C5.47725 14.3364 6.66172 14.6666 7.89578 14.6666C11.6352 14.6666 14.6666 11.6352 14.6666 7.89575C14.6666 4.15632 11.6352 1.12492 7.89578 1.12492C4.15635 1.12492 1.12495 4.15632 1.12495 7.89575C1.12495 9.12982 1.45509 10.3143 2.07176 11.3512C2.14508 11.4745 2.16431 11.6226 2.1249 11.7605L1.36246 14.4291L4.031 13.6666ZM15.3736 5.62645C18.6342 6.61406 20.9166 9.63355 20.9166 13.1041C20.9166 14.4492 20.5758 15.7455 19.9371 16.8944L20.8966 20.2527C21.0088 20.6456 20.6456 21.0088 20.2527 20.8965L16.8945 19.937C15.7455 20.5757 14.4492 20.9166 13.1041 20.9166C9.63692 20.9166 6.61575 18.6381 5.62647 15.3735C5.09827 15.2134 4.58881 14.9974 4.10544 14.7287L0.747197 15.6882C0.354305 15.8005 -0.00893546 15.4372 0.103319 15.0443L1.06282 11.6861C0.42413 10.5372 0.0832797 9.24085 0.0832797 7.89575C0.0832797 3.58103 3.58106 0.083252 7.89578 0.083252C11.4213 0.083252 14.4013 2.41845 15.3736 5.62645ZM15.635 6.82165C15.6833 7.17278 15.7083 7.53135 15.7083 7.89575C15.7083 12.2105 12.2105 15.7083 7.89578 15.7083C7.53358 15.7083 7.17492 15.6835 6.82172 15.6349C7.83764 18.1589 10.3031 19.8749 13.1041 19.8749C14.3382 19.8749 15.5226 19.5448 16.5596 18.9281C16.6829 18.8548 16.831 18.8356 16.9689 18.875L19.6374 19.6374L18.875 16.9689C18.8356 16.8309 18.8548 16.6829 18.9281 16.5596C19.5448 15.5226 19.8749 14.3381 19.8749 13.1041C19.8749 10.3006 18.1561 7.83637 15.635 6.82165Z" fill="black"/>
</svg>
