<svg width="39" height="26" viewBox="0 0 39 26" fill="none" xmlns="http://www.w3.org/2000/svg">
<path d="M38.9841 9.7471C38.9836 9.71017 38.9796 9.67336 38.9721 9.63708C38.9705 9.62885 38.9689 9.62076 38.9669 9.6126C38.9594 9.58033 38.9492 9.54866 38.9363 9.51791L38.9318 9.50738L38.9314 9.50631L36.5867 4.05359C36.4382 3.70496 36.1802 3.40604 35.8464 3.19581C35.5126 2.98557 35.1184 2.87378 34.7153 2.875H28.2344V1C28.2344 0.834242 28.1636 0.675276 28.0376 0.558067C27.9116 0.440859 27.7407 0.375008 27.5625 0.375H2.03125C1.49685 0.375543 0.984509 0.573261 0.606632 0.924774C0.228756 1.27629 0.0162083 1.75289 0.015625 2.25V19.75C0.0162083 20.2471 0.228756 20.7237 0.606632 21.0752C0.984509 21.4267 1.49685 21.6245 2.03125 21.625H4.7675C4.92894 22.6662 5.48832 23.6184 6.34315 24.3072C7.19798 24.9959 8.29099 25.375 9.42187 25.375C10.5528 25.375 11.6458 24.9959 12.5006 24.3072C13.3554 23.6184 13.9148 22.6662 14.0762 21.625H24.9238C25.0852 22.6662 25.6446 23.6184 26.4994 24.3072C27.3542 24.9959 28.4472 25.375 29.5781 25.375C30.709 25.375 31.802 24.9959 32.6568 24.3072C33.5117 23.6184 34.0711 22.6662 34.2325 21.625H36.9687C37.5031 21.6244 38.0155 21.4267 38.3933 21.0752C38.7712 20.7237 38.9838 20.2471 38.9844 19.75V9.75L38.9841 9.7471ZM34.7153 4.125C34.8497 4.1246 34.9811 4.16188 35.0923 4.23196C35.2036 4.30205 35.2896 4.4017 35.3391 4.51791L37.3201 9.125H28.2344V4.125H34.7153ZM2.03125 1.625H26.8906V12.875H1.35938V2.25C1.35957 2.08429 1.43041 1.92543 1.55637 1.80825C1.68233 1.69108 1.85312 1.62518 2.03125 1.625ZM1.35938 19.75V14.125H26.8906V17.4127C26.3625 17.7552 25.9154 18.1947 25.5771 18.7042C25.2388 19.2137 25.0164 19.7824 24.9238 20.375H14.0762C13.9148 19.3338 13.3554 18.3816 12.5006 17.6928C11.6458 17.0041 10.5528 16.625 9.42187 16.625C8.29099 16.625 7.19797 17.0041 6.34314 17.6928C5.48831 18.3816 4.92893 19.3338 4.7675 20.375H2.03125C1.85312 20.3748 1.68233 20.3089 1.55637 20.1917C1.43041 20.0746 1.35957 19.9157 1.35938 19.75ZM9.42188 24.125C8.75745 24.125 8.10795 23.9417 7.55551 23.5983C7.00306 23.255 6.57248 22.7669 6.31822 22.1959C6.06396 21.6249 5.99743 20.9965 6.12705 20.3903C6.25667 19.7842 6.57662 19.2273 7.04644 18.7903C7.51626 18.3533 8.11484 18.0556 8.7665 17.935C9.41815 17.8145 10.0936 17.8764 10.7075 18.1129C11.3213 18.3494 11.846 18.7499 12.2151 19.2638C12.5842 19.7777 12.7813 20.3819 12.7813 21C12.7803 21.8285 12.426 22.6228 11.7962 23.2087C11.1664 23.7945 10.3125 24.1241 9.42188 24.125ZM29.5781 24.125C28.9137 24.125 28.2642 23.9417 27.7118 23.5983C27.1593 23.255 26.7287 22.7669 26.4745 22.1959C26.2202 21.6249 26.1537 20.9965 26.2833 20.3903C26.4129 19.7842 26.7329 19.2273 27.2027 18.7903C27.6725 18.3533 28.2711 18.0556 28.9227 17.935C29.5744 17.8145 30.2499 17.8764 30.8637 18.1129C31.4775 18.3494 32.0022 18.7499 32.3713 19.2638C32.7405 19.7777 32.9375 20.3819 32.9375 21C32.9365 21.8285 32.5823 22.6228 31.9525 23.2087C31.3227 23.7945 30.4688 24.1241 29.5781 24.125ZM37.6406 19.75C37.6404 19.9157 37.5696 20.0746 37.4436 20.1917C37.3177 20.3089 37.1469 20.3748 36.9688 20.375H34.2325C34.1363 19.7529 33.897 19.1574 33.5311 18.6291C33.1651 18.1008 32.681 17.652 32.1117 17.3135C31.5425 16.975 30.9014 16.7546 30.2323 16.6673C29.5632 16.5801 28.8818 16.6281 28.2344 16.808V10.375H37.6406V19.75Z" fill="black"/>
</svg>
