<svg width="29" height="32" viewBox="0 0 29 32" fill="none" xmlns="http://www.w3.org/2000/svg">
<path d="M3.95994 0C2.90124 0 2.03419 0.9275 2.03419 2.06V7.7H3.23077V2.06C3.23077 1.6175 3.54628 1.28 3.95994 1.28H24.0401C24.4514 1.28 24.7692 1.6175 24.7692 2.06V7.7H25.9658V2.06C25.9658 0.9275 25.0988 0 24.0401 0H3.95994ZM13.4017 5.9C10.9525 5.9 9.10617 6.115 7.81143 6.5C7.16406 6.6925 6.65692 6.935 6.25962 7.24C5.874 7.5375 5.59589 7.945 5.54915 8.44H5.53045V8.48L4.50214 16.64H3.95994C3.70753 16.64 3.46681 16.66 3.23077 16.72V15.34H2.03419V17.36C1.31203 17.965 0.837608 18.895 0.837608 19.96V25.6V25.66V28.68C0.835271 28.7075 0.835271 28.7325 0.837608 28.76V30.08C0.837608 31.1325 1.64857 32 2.63248 32H5.02564C6.00955 32 6.82051 31.1325 6.82051 30.08V28.8H16.8606C18.0361 30.7275 20.0694 32 22.3761 32C22.514 32 22.6518 31.99 22.7874 31.98C22.8482 31.9975 22.9113 32.005 22.9744 32H25.3675C26.3514 32 27.1624 31.1325 27.1624 30.08C27.1671 29.9925 27.153 29.9025 27.125 29.82C28.2561 28.555 28.9573 26.8425 28.9573 24.96C28.9573 23.0975 28.2725 21.4 27.1624 20.14V19.96C27.1624 18.895 26.688 17.965 25.9658 17.36V15.34H24.7692V16.72C24.5332 16.66 24.2925 16.64 24.0401 16.64H23.4979L22.4696 8.48V8.44H22.4509C22.3924 7.8325 21.9647 7.475 21.4786 7.2C20.9808 6.9175 20.3381 6.6875 19.5529 6.5C17.9824 6.1275 15.851 5.9 13.4017 5.9ZM13.4017 7.18C15.7832 7.18 17.8492 7.4175 19.2911 7.76C20.011 7.9325 20.5765 8.1275 20.9177 8.32C21.1748 8.465 21.2543 8.585 21.273 8.6L21.2917 8.62L21.9087 13.52C21.1608 13.6625 18.6368 14.08 14 14.08C9.36325 14.08 6.83921 13.6625 6.09135 13.52L6.70833 8.62C6.71535 8.6075 6.72236 8.5925 6.72703 8.58C6.72937 8.5425 6.73171 8.45 6.95139 8.28C7.17107 8.11 7.56838 7.905 8.12927 7.74C9.24873 7.4075 11.0202 7.18 13.4017 7.18ZM1.58547 8.26C0.825923 8.26 0.183228 8.9475 0.183228 9.76V13.28C0.183228 14.095 0.825923 14.78 1.58547 14.78H2.48291C3.24479 14.78 3.88515 14.0925 3.88515 13.28V9.76C3.88515 8.945 3.24246 8.26 2.48291 8.26H1.58547ZM25.5171 8.26C24.7575 8.26 24.1148 8.945 24.1148 9.76V13.28C24.1148 14.0925 24.7552 14.78 25.5171 14.78H26.4145C27.1741 14.78 27.8168 14.095 27.8168 13.28V9.76C27.8168 8.9475 27.1764 8.26 26.4145 8.26H25.5171ZM1.58547 9.66H2.48291C2.54367 9.66 2.57639 9.695 2.57639 9.76V13.28C2.57639 13.345 2.54367 13.38 2.48291 13.38H1.58547C1.52471 13.38 1.49199 13.345 1.49199 13.28V9.76C1.49199 9.695 1.52471 9.66 1.58547 9.66ZM25.5171 9.66H26.4145C26.4753 9.66 26.508 9.695 26.508 9.76V13.28C26.508 13.345 26.4753 13.38 26.4145 13.38H25.5171C25.4563 13.38 25.4236 13.345 25.4236 13.28V9.76C25.4236 9.695 25.4563 9.66 25.5171 9.66ZM5.94177 14.78C6.8766 14.9525 9.52217 15.36 14 15.36C18.4778 15.36 21.1234 14.9525 22.0582 14.78L22.3761 17.36C22.4135 17.6825 22.6705 17.9225 22.9744 17.92H24.0401C24.7459 17.92 25.3512 18.295 25.6854 18.88C24.7131 18.275 23.5797 17.92 22.3761 17.92C21.0416 17.92 19.803 18.3475 18.7676 19.08V18.32C18.7676 17.4125 18.0642 16.66 17.2158 16.66H10.7842C9.93583 16.66 9.23237 17.4125 9.23237 18.32V21.36C9.23237 22.2675 9.93583 23.02 10.7842 23.02H16.0566C15.9444 23.44 15.8697 23.8725 15.8323 24.32H2.03419V19.96C2.03419 18.7875 2.88255 17.92 3.95994 17.92H5.02564C5.32946 17.9225 5.58654 17.6825 5.62393 17.36L5.94177 14.78ZM10.7842 17.9H17.2158C17.4378 17.9 17.6084 18.0825 17.6084 18.32V20.12C17.1737 20.6125 16.8138 21.17 16.524 21.78H10.7842C10.5622 21.78 10.3916 21.5975 10.3916 21.36V18.32C10.3916 18.0825 10.5622 17.9 10.7842 17.9ZM4.24039 19.2C3.6865 19.2 3.23077 19.6875 3.23077 20.28V21.96C3.23077 22.5525 3.6865 23.04 4.24039 23.04H7.00748C7.56137 23.04 8.01709 22.5525 8.01709 21.96V20.28C8.01709 19.6875 7.56137 19.2 7.00748 19.2H4.24039ZM22.3761 19.2C23.818 19.2 25.1315 19.7975 26.0967 20.78C26.1084 20.795 26.1201 20.8075 26.1341 20.82C27.1414 21.865 27.7607 23.335 27.7607 24.96C27.7607 28.1475 25.3558 30.72 22.3761 30.72C19.3963 30.72 16.9915 28.1475 16.9915 24.96C16.9915 21.7725 19.3963 19.2 22.3761 19.2ZM4.42735 20.48H6.82051V21.76H4.42735V20.48ZM25.3675 22.62L21.9647 26.26L19.8333 23.98L18.9733 24.88L21.5534 27.62L21.9647 28.08L22.3948 27.62L26.2276 23.54L25.3675 22.62ZM2.03419 25.6H15.8323C15.8884 26.2725 16.0403 26.915 16.2623 27.52H2.03419V25.7C2.03653 25.6675 2.03653 25.6325 2.03419 25.6ZM2.03419 28.8H5.62393V30.08C5.62393 30.44 5.36218 30.72 5.02564 30.72H2.63248C2.29594 30.72 2.03419 30.44 2.03419 30.08V28.8Z" fill="black"/>
</svg>
