<svg width="25" height="25" viewBox="0 0 25 25" fill="none" xmlns="http://www.w3.org/2000/svg">
<path fill-rule="evenodd" clip-rule="evenodd" d="M12.5 21.8749C17.6777 21.8749 21.875 17.6776 21.875 12.4999C21.875 7.32226 17.6777 3.12492 12.5 3.12492C7.32238 3.12492 3.12504 7.32226 3.12504 12.4999C3.12504 17.6776 7.32238 21.8749 12.5 21.8749ZM12.5 22.9166C18.253 22.9166 22.9167 18.2529 22.9167 12.4999C22.9167 6.74695 18.253 2.08325 12.5 2.08325C6.74707 2.08325 2.08337 6.74695 2.08337 12.4999C2.08337 18.2529 6.74707 22.9166 12.5 22.9166Z" fill="#333333"/>
<path fill-rule="evenodd" clip-rule="evenodd" d="M12.8299 6.25373C11.766 6.21837 10.6637 6.42915 9.75726 6.87483C8.8532 7.3193 8.08919 8.02811 7.82981 9.01196C7.75643 9.29009 7.92247 9.57503 8.2006 9.64837C8.47877 9.7217 8.76367 9.55566 8.83705 9.27753C8.99372 8.68321 9.47763 8.17306 10.2168 7.80962C10.951 7.44873 11.88 7.26441 12.7953 7.29483C13.7135 7.3254 14.5672 7.56988 15.1764 8.01097C15.7676 8.4391 16.1459 9.06082 16.1459 9.93498C16.1459 10.8538 15.6266 11.5249 14.8627 12.0028C14.0921 12.4849 13.138 12.7216 12.4692 12.7612C12.1941 12.7775 11.9792 13.0055 11.9792 13.2812V14.5833C11.9792 14.8709 12.2124 15.1041 12.5001 15.1041C12.7877 15.1041 13.0209 14.8709 13.0209 14.5833V14.1822C13.0209 13.9372 13.1917 13.7253 13.4312 13.6733C14.0826 13.5316 14.7917 13.276 15.4152 12.8859C16.3687 12.2894 17.1876 11.33 17.1876 9.93498C17.1876 8.70285 16.6291 7.7768 15.7873 7.16727C14.9645 6.57149 13.8912 6.28904 12.8299 6.25373ZM9.29768 5.94003C10.3766 5.40957 11.652 5.17232 12.8645 5.21264C14.0688 5.25269 15.3616 5.57295 16.3982 6.32358C17.4904 7.11436 18.2292 8.34462 18.2292 9.93498C18.2292 11.8073 17.1095 13.0546 15.9677 13.7689C15.3575 14.1507 14.6924 14.4174 14.0626 14.5903C14.0588 15.45 13.3606 16.1458 12.5001 16.1458C11.6372 16.1458 10.9376 15.4462 10.9376 14.5833V13.2812C10.9376 12.4541 11.5821 11.7703 12.4076 11.7214C12.9322 11.6903 13.711 11.4946 14.3102 11.1197C14.8771 10.7651 15.1042 10.3843 15.1042 9.93498C15.1042 9.41727 14.9049 9.10045 14.5655 8.85472C14.1696 8.56805 13.5351 8.3617 12.7606 8.33592C11.9941 8.31045 11.2383 8.46821 10.6764 8.74441C10.1066 9.02462 9.89924 9.33467 9.84429 9.54311C9.62424 10.3775 8.76945 10.8756 7.93502 10.6556C7.1006 10.4356 6.60252 9.58081 6.82252 8.74639C7.18481 7.37248 8.22955 6.46519 9.29768 5.94003ZM12.5003 17.7083C12.2127 17.7083 11.9795 17.9414 11.9795 18.2291C11.9795 18.5168 12.2127 18.7499 12.5003 18.7499C12.788 18.7499 13.0212 18.5168 13.0212 18.2291C13.0212 17.9414 12.788 17.7083 12.5003 17.7083ZM10.9378 18.2291C10.9378 17.3661 11.6374 16.6666 12.5003 16.6666C13.3633 16.6666 14.0628 17.3661 14.0628 18.2291C14.0628 19.0921 13.3633 19.7916 12.5003 19.7916C11.6374 19.7916 10.9378 19.0921 10.9378 18.2291Z" fill="#333333"/>
</svg>
