<svg width="25" height="25" viewBox="0 0 25 25" fill="none" xmlns="http://www.w3.org/2000/svg">
<path d="M12.5011 21.6797C12.4008 21.6797 12.3023 21.654 12.2148 21.605C10.4341 20.562 8.76286 19.3424 7.22633 17.9648C3.85757 14.933 2.14954 11.9115 2.14954 8.98438C2.14988 7.77285 2.53858 6.59333 3.25858 5.61895C3.97858 4.64458 4.99195 3.92665 6.14997 3.57056C7.30799 3.21447 8.54966 3.23896 9.69273 3.64044C10.8358 4.04193 11.8201 4.79925 12.5011 5.80126C13.1821 4.79925 14.1664 4.04193 15.3095 3.64044C16.4525 3.23896 17.6942 3.21447 18.8522 3.57056C20.0102 3.92665 21.0236 4.64458 21.7436 5.61895C22.4636 6.59333 22.8523 7.77285 22.8527 8.98438C22.8527 11.9115 21.1446 14.933 17.7759 17.9648C16.2393 19.3424 14.5681 20.562 12.7874 21.605C12.6999 21.654 12.6014 21.6797 12.5011 21.6797ZM7.8136 4.49219C6.62261 4.49354 5.48079 4.96725 4.63863 5.80941C3.79648 6.65157 3.32276 7.79339 3.32141 8.98438C3.32141 14.5826 10.9177 19.4587 12.5011 20.4138C14.0845 19.4587 21.6808 14.5826 21.6808 8.98438C21.6806 7.94608 21.3208 6.9399 20.6626 6.1369C20.0044 5.33391 19.0884 4.78366 18.0703 4.57972C17.0522 4.37577 15.9949 4.53072 15.0782 5.01821C14.1615 5.50571 13.4419 6.29566 13.0417 7.25375C12.9972 7.3604 12.9221 7.45148 12.8259 7.51554C12.7297 7.5796 12.6167 7.61379 12.5011 7.61379C12.3855 7.61379 12.2725 7.5796 12.1763 7.51554C12.0801 7.45148 12.005 7.3604 11.9605 7.25375C11.6199 6.43491 11.0441 5.73547 10.306 5.2439C9.5678 4.75234 8.70045 4.49073 7.8136 4.49219Z" fill="black"/>
</svg>
