<?xml version="1.0" encoding="iso-8859-1"?>
<!-- Uploaded to: SVG Repo, www.svgrepo.com, Generator: SVG Repo Mixer Tools -->
<svg fill="#000000" height="800px" width="800px" version="1.1" id="Layer_1" xmlns="http://www.w3.org/2000/svg" xmlns:xlink="http://www.w3.org/1999/xlink" 
	 viewBox="0 0 480 480" xml:space="preserve">
<g id="XMLID_916_">
	<g>
		<g>
			<path d="M218.706,278.776l-0.664,0.664c-3.905,3.905-3.905,10.237,0,14.143c1.952,1.952,4.512,2.929,7.071,2.929
				c2.559,0,5.119-0.977,7.071-2.929l0.664-0.664c3.905-3.905,3.905-10.237,0-14.143
				C228.943,274.872,222.611,274.872,218.706,278.776z"/>
			<path d="M279.38,151.339c-3.906-3.904-10.236-3.904-14.143,0L150.62,265.956c-3.905,3.905-3.905,10.237,0,14.143
				c1.953,1.952,4.512,2.929,7.071,2.929c2.559,0,5.119-0.977,7.071-2.929L279.38,165.481
				C283.285,161.576,283.285,155.244,279.38,151.339z"/>
			<path d="M189.182,59.735C147.624,66.76,111.289,89.548,86.87,123.9c-24.419,34.352-33.998,76.16-26.974,117.717
				s29.812,77.893,64.165,102.312c27.004,19.195,58.609,29.221,91.083,29.22c8.837,0,17.744-0.742,26.634-2.245
				c22.722-3.841,43.815-12.333,62.695-25.241c4.56-3.116,5.729-9.34,2.611-13.898c-3.116-4.561-9.341-5.728-13.898-2.611
				c-16.476,11.263-34.893,18.675-54.741,22.03c-36.292,6.133-72.798-2.231-102.796-23.555
				c-29.999-21.324-49.897-53.054-56.031-89.345c-6.134-36.29,2.231-72.797,23.555-102.796
				c21.324-29.998,53.053-49.897,89.344-56.031c42.273-7.149,84.647,5.412,116.26,34.452c4.066,3.737,10.394,3.469,14.129-0.6
				c3.736-4.066,3.468-10.393-0.6-14.129C286.11,65.931,237.586,51.557,189.182,59.735z"/>
			<path d="M184.759,179.197c3.905-3.906,3.905-10.238,0-14.143c-3.906-3.904-10.238-3.904-14.143,0l-33.48,33.48
				c-3.905,3.906-3.905,10.238,0,14.143c1.952,1.952,4.512,2.929,7.071,2.929c2.559,0,5.118-0.977,7.071-2.929L184.759,179.197z"/>
			<path d="M346.1,44.582C308.241,15.416,262.907,0,215,0C157.571,0,103.58,22.364,62.972,62.972C22.364,103.58,0,157.571,0,215
				s22.364,111.42,62.972,152.028c38.244,38.243,88.352,60.306,142.028,62.745V460h-75c-5.523,0-10,4.478-10,10
				c0,5.522,4.477,10,10,10h170c5.522,0,10-4.478,10-10c0-5.522-4.478-10-10-10h-75v-30.234
				c31.266-1.462,62.063-9.754,89.641-24.201c4.893-2.563,6.78-8.607,4.218-13.499c-2.563-4.892-8.604-6.78-13.499-4.218
				C277.697,402.34,246.452,410,215,410c-107.523,0-195-87.477-195-195S107.477,20,215,20c43.452,0,84.564,13.979,118.895,40.426
				c4.375,3.37,10.653,2.559,14.024-1.819C351.289,54.231,350.475,47.952,346.1,44.582z"/>
			<path d="M470,212.684V190c0-7.387-4.026-13.852-10-17.316V67.016c0-6.786-2.335-13.441-6.574-18.742l-29.533-36.917
				C418.117,4.14,409.505,0,400.262,0C383.575,0,370,13.575,370,30.262v142.422c-5.974,3.463-10,9.928-10,17.316v22.684
				c-5.974,3.463-10,9.928-10,17.316v220c0,16.542,13.458,30,30,30h70c16.542,0,30-13.458,30-30V230
				C480,222.612,475.974,216.147,470,212.684z M390,30.262C390,24.604,394.604,20,400.262,20c3.135,0,6.056,1.405,8.014,3.852
				l29.532,36.916c1.414,1.768,2.192,3.986,2.192,6.248V170h-50V30.262z M380,190h70v20h-70V190z M460,450c0,5.514-4.486,10-10,10
				h-70c-5.514,0-10-4.486-10-10V230h90V450z"/>
			<path d="M209.863,154.092l2.094-2.095c3.905-3.905,3.905-10.237,0-14.143c-3.904-3.904-10.237-3.904-14.142,0l-2.095,2.095
				c-3.905,3.905-3.905,10.237,0,14.143c1.953,1.952,4.512,2.929,7.071,2.929S207.911,156.044,209.863,154.092z"/>
			<path d="M253.876,267.749c2.56,0,5.118-0.977,7.071-2.929l31.917-31.917c3.905-3.905,3.905-10.237,0-14.143
				c-3.906-3.904-10.236-3.904-14.143,0l-31.917,31.917c-3.905,3.905-3.905,10.237,0,14.143
				C248.758,266.772,251.316,267.749,253.876,267.749z"/>
		</g>
	</g>
</g>
</svg>