<svg width="26" height="26" viewBox="0 0 26 26" fill="none" xmlns="http://www.w3.org/2000/svg">
<path d="M6.17865 6.41478C6.42116 6.1731 6.81158 6.18621 7.05368 6.42832C7.31877 6.69341 7.30217 7.12624 7.03899 7.39324C5.41946 9.03619 4.42 11.292 4.42 13.7813C4.42 16.3684 5.49961 18.7033 7.2329 20.3602C7.50929 20.6245 7.53327 21.068 7.2629 21.3383C7.02621 21.575 6.64632 21.5932 6.40233 21.364C4.38194 19.4669 3.12 16.7714 3.12 13.7813C3.12 10.903 4.28924 8.2978 6.17865 6.41478Z" fill="#212121"/>
<path d="M20.001 7.39324C19.7377 7.12624 19.7212 6.69341 19.9863 6.42832C20.2284 6.18621 20.6188 6.1731 20.8613 6.41478C22.7508 8.2978 23.92 10.903 23.92 13.7813C23.92 16.7714 22.6581 19.4669 20.6376 21.364C20.3936 21.5932 20.0137 21.575 19.7771 21.3383C19.5067 21.068 19.5307 20.6245 19.807 20.3602C21.5403 18.7033 22.62 16.3684 22.62 13.7813C22.62 11.292 21.6205 9.03619 20.001 7.39324Z" fill="#212121"/>
<path d="M8.49106 8.69839C8.72829 8.46365 9.1079 8.48224 9.34389 8.71823C9.61444 8.98879 9.58798 9.43263 9.32152 9.70721C8.29931 10.7605 7.67 12.1972 7.67 13.7809C7.67 15.4587 8.37621 16.9713 9.50756 18.0381C9.79403 18.3081 9.83262 18.7683 9.55422 19.0467C9.32644 19.2745 8.96268 19.2999 8.72383 19.0838C7.27819 17.7755 6.37 15.8843 6.37 13.7809C6.37 11.7929 7.18138 9.99435 8.49106 8.69839Z" fill="#212121"/>
<path d="M17.7185 9.70721C17.452 9.43263 17.4256 8.98879 17.6961 8.71823C17.932 8.48224 18.3116 8.46365 18.5489 8.69839C19.8586 9.99434 20.67 11.7929 20.67 13.7809C20.67 15.8843 19.7618 17.7755 18.3162 19.0838C18.0773 19.2999 17.7135 19.2745 17.4858 19.0467C17.2073 18.7683 17.2459 18.3081 17.5324 18.0381C18.6638 16.9713 19.37 15.4587 19.37 13.7809C19.37 12.1972 18.7406 10.7605 17.7185 9.70721Z" fill="#212121"/>
<path d="M13.52 12.156C12.6226 12.156 11.895 12.8835 11.895 13.781C11.895 14.6785 12.6226 15.406 13.52 15.406C14.4175 15.406 15.145 14.6785 15.145 13.781C15.145 12.8835 14.4175 12.156 13.52 12.156Z" fill="#212121"/>
</svg>
