<svg width="25" height="26" viewBox="0 0 25 26" fill="none" xmlns="http://www.w3.org/2000/svg">
<g clip-path="url(#clip0_980_5070)">
<path d="M12.4665 18.0061C10.6448 18.0054 8.95759 17.4314 7.57573 16.4552L7.60222 16.473C5.78723 15.1941 4.51384 13.2531 4.13298 11.009L4.12603 10.9596C4.04585 10.5206 4 10.0154 4 9.49943C4 7.66106 4.58215 5.95842 5.57244 4.56522L5.55461 4.59166C7.11516 2.40731 9.6447 1 12.5033 1C12.5146 1 12.526 1 12.5373 1.00007H12.5355H12.5542C14.3899 1.00007 16.0903 1.57857 17.4823 2.56296L17.4557 2.54512C19.6351 4.0956 21.04 6.60882 21.0427 9.44981V9.45022C21.0231 12.3459 19.5769 14.9002 17.3713 16.45L17.3439 16.4683H17.3356C15.9794 17.4293 14.2904 18.005 12.4668 18.0062H12.4665L12.4665 18.0061ZM12.5308 2.18856L12.5033 2.18851C10.0442 2.18851 7.86826 3.39933 6.54119 5.25637L6.52605 5.27862C5.69099 6.45488 5.19119 7.91946 5.19119 9.5006C5.19119 9.94768 5.23115 10.3854 5.30769 10.8105L5.30103 10.7659C5.63306 12.7365 6.72598 14.4047 8.26177 15.4892L8.28435 15.5043C9.44939 16.326 10.899 16.8176 12.4636 16.8176H12.4667H12.4665C14.0317 16.8165 15.4814 16.3237 16.6691 15.4855L16.6463 15.5008C18.575 14.1497 19.8259 11.9475 19.8474 9.45239V9.44903C19.8452 7.00786 18.6385 4.84853 16.7887 3.53114L16.7665 3.51607C15.5915 2.68558 14.1288 2.18854 12.5499 2.18854H12.5297L12.5308 2.18856ZM12.4665 4.93274L13.8951 7.90399L16.9903 8.37941L14.7284 10.6375L15.3236 13.8464L12.4665 12.3014L9.60933 13.8464L10.2046 10.6376L7.94268 8.37944L11.0379 7.90404L12.4665 4.93274ZM7.34749 14.7295L8.2832 15.3784C9.44873 16.2032 10.8997 16.6974 12.4662 16.6988H12.4666C14.0333 16.6978 15.4843 16.2039 16.6727 15.3643L16.6499 15.3796L17.5856 14.7307V26.4575L12.4665 22.5568L7.34749 26.4575V14.7295ZM12.4665 17.8872H12.4636C11.0281 17.8872 9.67625 17.5297 8.49251 16.8989L8.53791 16.921V24.0519L12.4665 21.0594L16.3951 24.0519V16.9211C15.2568 17.5297 13.905 17.8872 12.4694 17.8872H12.4664H12.4665Z" fill="black"/>
</g>
<defs>
<clipPath id="clip0_980_5070">
<rect width="25" height="26" fill="white"/>
</clipPath>
</defs>
</svg>
