<svg width="26" height="25" viewBox="0 0 26 25" fill="none" xmlns="http://www.w3.org/2000/svg">
<path d="M24.0427 7.97917C23.5259 7.57358 22.8842 7.33333 22.188 7.33333H21.508C21.2211 5.85954 19.9735 4.75 18.4786 4.75H7.35043C5.85555 4.75 4.60795 5.85954 4.32109 7.33333H3.64103C2.616 7.33333 1.78633 6.46662 1.78633 5.39583V4.10417C1.78633 3.03337 2.616 2.16667 3.64103 2.16667H22.188C23.2131 2.16667 24.0427 3.03337 24.0427 4.10417V7.97917ZM5.60083 7.33333C5.85555 6.58029 6.54302 6.04167 7.35043 6.04167H18.4786C19.2861 6.04167 19.9735 6.58029 20.2282 7.33333H5.60083ZM24.0427 12.5H19.7151C18.0075 12.5 16.6239 13.9454 16.6239 15.7292C16.6239 17.513 18.0075 18.9583 19.7151 18.9583H24.0427V20.8958C24.0427 21.9653 23.2131 22.8333 22.188 22.8333H3.64103C2.616 22.8333 1.78633 21.9653 1.78633 20.8958V7.97917C2.30318 8.38475 2.9449 8.625 3.64103 8.625H22.188C23.2131 8.625 24.0427 9.493 24.0427 10.5625V12.5ZM24.0427 17.6667H19.7151C18.6901 17.6667 17.8604 16.7987 17.8604 15.7292C17.8604 14.6597 18.6901 13.7917 19.7151 13.7917H24.0427V17.6667ZM22.188 0.875H3.64103C1.93347 0.875 0.549866 2.32037 0.549866 4.10417V20.8958C0.549866 22.6796 1.93347 24.125 3.64103 24.125H22.188C23.8956 24.125 25.2792 22.6796 25.2792 20.8958V4.10417C25.2792 2.32037 23.8956 0.875 22.188 0.875Z" fill="black"/>
</svg>
