<svg width="20" height="20" viewBox="0 0 20 20" fill="none" xmlns="http://www.w3.org/2000/svg">
<path d="M8.45314 5.52303C9.10865 3.88886 9.4364 3.07178 10 3.07178C10.5636 3.07178 10.8914 3.88886 11.5469 5.52303L11.5774 5.59912C11.9477 6.52235 12.1329 6.98396 12.5103 7.26453C12.8876 7.5451 13.383 7.58947 14.3738 7.6782L14.5529 7.69424C16.1744 7.83946 16.9852 7.91207 17.1586 8.42789C17.3321 8.94371 16.73 9.4915 15.5258 10.5871L15.1239 10.9527C14.5143 11.5073 14.2095 11.7846 14.0675 12.1481C14.041 12.2158 14.0189 12.2853 14.0015 12.356C13.9081 12.7349 13.9974 13.1371 14.1759 13.9417L14.2315 14.1921C14.5595 15.6707 14.7236 16.4101 14.4372 16.7289C14.3301 16.8481 14.191 16.9339 14.0365 16.9761C13.623 17.0889 13.036 16.6105 11.8618 15.6538C11.0909 15.0255 10.7054 14.7114 10.2628 14.6408C10.0887 14.613 9.91131 14.613 9.73722 14.6408C9.29463 14.7114 8.90914 15.0255 8.13817 15.6538C6.96404 16.6105 6.37698 17.0889 5.96348 16.9761C5.80896 16.9339 5.66987 16.8481 5.56285 16.7289C5.27645 16.4101 5.44048 15.6707 5.76854 14.1921L5.82411 13.9417C6.00261 13.1371 6.09187 12.7349 5.99849 12.356C5.98107 12.2853 5.95904 12.2158 5.93254 12.1481C5.79048 11.7846 5.48568 11.5073 4.87609 10.9527L4.47419 10.5871C3.26999 9.4915 2.66789 8.94371 2.84137 8.42789C3.01485 7.91207 3.82561 7.83946 5.44712 7.69424L5.62623 7.6782C6.617 7.58947 7.11238 7.5451 7.48975 7.26453C7.86713 6.98396 8.05229 6.52235 8.42262 5.59912L8.45314 5.52303Z" stroke="#33363F"/>
</svg>
