<svg width="25" height="20" viewBox="0 0 25 20" fill="none" xmlns="http://www.w3.org/2000/svg">
<path d="M0 0H25V20H0V12.9268H0.568188C2.07441 12.9268 3.29548 11.6164 3.29548 9.99995C3.29548 8.38353 2.07441 7.07314 0.568188 7.07314H0V0ZM23.8636 1.2195H1.13635V5.89878C3.01062 6.20884 4.42932 7.92623 4.43184 9.99969V10C4.4293 12.0738 3.0106 13.7912 1.15803 14.0983L1.13638 14.1012V18.7805H23.8637L23.8636 1.2195ZM10.3409 5.9756H8.18184V4.7561H10.3409L10.3409 5.9756ZM10.3409 10.6098H8.18184V9.39026H10.3409L10.3409 10.6098ZM10.3409 15.2439H8.18184V14.0244H10.3409L10.3409 15.2439Z" fill="black"/>
</svg>
